<?xml version="1.0" encoding="UTF-8" standalone="no"?>
<svg
   version="1.0"
   viewBox="0 0 99.999998 99.999998"
   id="svg33"
   sodipodi:docname="mouse-small.svg"
   width="100"
   height="100"
   inkscape:version="1.3 (0e150ed6c4, 2023-07-21)"
   xmlns:inkscape="http://www.inkscape.org/namespaces/inkscape"
   xmlns:sodipodi="http://sodipodi.sourceforge.net/DTD/sodipodi-0.dtd"
   xmlns="http://www.w3.org/2000/svg"
   xmlns:svg="http://www.w3.org/2000/svg">
  <sodipodi:namedview
     id="namedview33"
     pagecolor="#ffffff"
     bordercolor="#000000"
     borderopacity="0.25"
     inkscape:showpageshadow="2"
     inkscape:pageopacity="0.0"
     inkscape:pagecheckerboard="0"
     inkscape:deskcolor="#d1d1d1"
     inkscape:zoom="4.3937152"
     inkscape:cx="109.13315"
     inkscape:cy="93.656502"
     inkscape:window-width="1920"
     inkscape:window-height="1011"
     inkscape:window-x="0"
     inkscape:window-y="32"
     inkscape:window-maximized="1"
     inkscape:current-layer="svg33" />
  <defs
     id="defs1">
    <clipPath
       clipPathUnits="userSpaceOnUse"
       id="a">
      <path
         d="M 5.836,6.156 H 223.864 V 193.563 H 5.836 Z"
         id="path1" />
    </clipPath>
  </defs>
  <g
     id="g33"
     transform="matrix(0.31863883,0,0,0.31863883,13.438157,26.492086)">
    <path
       clip-path="url(#a)"
       d="M 39.496,54.907 C 32.42,77.393 32.84,82.39 30.342,89.886 c -2.899,7.075 -18.31,17.07 -22.887,38.736 -3.337,14.151 6.656,29.562 48.691,38.317 42.454,8.735 66.18,3.318 86.987,4.157 21.227,0.84 64.94,0.42 79.492,21.227 -14.551,-20.807 -53.687,-24.565 -74.915,-25.384 -20.807,-1.26 -41.195,2.498 -83.649,-6.256 -34.959,-8.755 -48.27,-17.07 -45.372,-31.241 2.078,-9.155 13.731,-18.73 15.83,-19.988 3.738,-2.899 7.895,-3.318 12.473,-1.24 7.495,3.738 22.066,8.335 26.643,8.335 4.997,0 19.569,0.82 28.723,-0.84 9.574,-2.078 17.05,-7.495 25.385,-0.839 3.318,2.919 8.734,7.076 12.492,9.575 3.318,2.498 11.233,6.676 12.472,8.335 0.84,1.659 2.919,3.338 3.338,4.157 0.82,0.42 0.82,1.679 2.08,1.679 0.839,-0.42 -0.42,-1.26 -0.42,-2.079 0,-0.84 0.42,-2.918 -0.42,-4.177 0.84,0.42 2.918,1.679 4.177,1.679 1.24,0.4 1.66,0.4 2.479,0.82 0.42,0.419 0.42,1.258 0.84,0.839 0.839,-0.84 0.419,-1.66 -0.84,-3.758 0,0 0.42,0 0.84,0.42 0.419,0.84 1.258,0.42 1.258,0.42 0,0 -0.42,-1.24 -0.84,-2.499 -0.419,-1.24 -0.839,-2.079 -1.258,-2.918 -0.82,-0.82 -3.318,-1.24 -3.318,-1.24 0,0 -0.42,-0.42 -0.84,-1.259 -0.82,-0.42 -5.397,0 -5.816,-0.42 -0.42,0 -6.257,-4.996 -6.656,-6.236 -0.84,-0.84 0.4,-3.338 1.239,-2.918 0.84,0.42 3.338,0.84 4.577,2.499 l 3.338,3.338 c 1.24,0.82 0.4,1.239 1.24,1.239 0.42,-0.42 0.839,-1.24 0,-2.499 h 2.078 c 0.84,0.42 2.079,0.42 2.499,1.26 0.42,0.82 0.42,1.659 0.84,1.239 0.419,-0.82 0.419,-2.918 -1.66,-5.817 0,0 1.66,0 2.479,0.82 0.42,-0.82 -1.66,-4.158 -3.318,-5.417 -1.26,-0.82 -4.158,-1.24 -4.997,-1.659 -1.24,-0.84 -2.499,-1.659 -4.578,-2.079 -2.078,-0.84 -1.259,-0.84 -2.498,-3.338 0,-0.84 0,-1.659 0.84,-2.498 l -0.84,0.84 c 1.24,-2.919 6.236,-8.755 15.81,-8.336 0,0 2.499,0.84 7.496,0 5.417,-0.839 11.233,3.338 14.151,4.578 3.338,1.259 9.155,-1.66 11.653,-2.079 2.079,-0.84 5.417,-1.659 7.076,-4.577 2.079,-3.338 -1.66,-7.915 -4.158,-13.332 -2.078,-5.417 -5.416,-9.574 -6.236,-13.312 0.4,-9.175 -4.597,-10.414 -4.597,-10.414 0,0 -4.977,-4.597 -7.475,-10.413 -2.919,-5.837 -4.578,-7.916 -7.916,-12.073 0,0 0.84,-12.912 -9.154,-21.247 -9.994,-8.335 -12.493,-4.578 -10.814,1.659 1.24,6.676 1.66,12.092 1.66,12.092 0,0 -1.66,7.896 -6.257,5.397 C 80.711,0.76 44.913,36.578 39.496,54.907 Z"
       fill="#ededee"
       fill-rule="evenodd"
       fill-opacity="1"
       stroke="none"
       id="path2" />
    <path
       d="m 61.123,101.578 c 3.758,2.499 19.128,1.24 23.286,0.4 A 56.22,56.22 0 0 0 113.11,84.07 c 7.896,-9.994 12.473,-24.565 12.053,-37.497 0.42,2.518 4.158,5.416 5.837,7.095 3.737,3.738 7.475,6.656 9.554,12.073 3.318,8.335 -4.577,20.828 -10.394,26.664 -5.417,5.417 -11.653,9.574 -19.128,12.093 -6.656,1.659 -14.551,3.318 -21.627,4.157 -9.155,1.24 -16.21,-1.26 -24.945,-2.918 z"
       fill="#e1e1e2"
       fill-rule="evenodd"
       fill-opacity="1"
       stroke="none"
       id="path3" />
    <path
       d="m 59.124,112.692 c 0.42,0.84 1.26,1.259 2.079,1.679 2.079,0.84 8.715,3.358 10.374,4.197 1.239,0.84 2.918,4.198 4.157,6.296 0,0.42 0.42,0.84 0.82,0.84 0.42,0.84 0.42,1.26 0.42,1.26 0.42,-0.001 0.42,-0.42 0.42,-0.84 0,-0.42 0.419,-1.26 0.419,-1.68 -0.42,-2.098 -0.84,-3.777 -0.84,-3.777 0,0 4.977,0 6.217,1.26 1.259,1.258 3.737,4.197 4.157,5.036 0.42,0.84 1.24,1.26 2.079,1.679 0.42,0.42 0.42,1.24 0.82,1.24 0.42,0 0,-0.82 0,-1.24 0,-1.26 -0.4,-4.617 -0.4,-4.617 0,0 1.659,0.42 2.898,0.84 0.82,0 2.079,0.839 2.478,0.839 0.42,0 0.42,0.42 0.84,0.42 0.42,-0.42 0.42,-0.42 0,-1.26 -0.42,-0.42 -0.42,-1.679 -0.84,-1.679 0,-0.42 1.26,-0.42 2.079,0 0.42,0.42 0.84,0.84 1.24,0 0,0 -0.4,-0.42 -0.82,-0.84 -0.84,-1.258 -2.499,-2.937 -3.318,-3.357 -1.24,-0.84 -2.898,-1.68 -5.397,-2.099 -6.216,0 -12.452,-0.42 -15.35,-0.42 -2.5,0 -8.715,-1.679 -14.532,-3.777 z"
       fill="#d9dadb"
       fill-rule="evenodd"
       fill-opacity="1"
       stroke="none"
       id="path4" />
    <path
       d="m 20.747,121.986 c 1.68,-3.738 7.076,-8.755 10.834,-10.434 1.24,-0.82 2.498,-2.078 2.898,-2.078 3.758,-2.919 7.915,-3.338 12.493,-1.26 7.495,3.758 22.046,8.355 26.623,8.355 4.997,0 19.549,0.84 28.703,-0.84 9.574,-2.078 17.07,-7.515 25.385,-0.839 3.338,2.939 8.734,7.096 12.492,9.615 3.318,2.498 11.233,6.675 12.472,8.334 0.84,1.68 2.919,3.338 3.338,4.178 0.82,0.42 0.82,1.659 2.08,1.659 0.819,-0.4 -0.42,-1.24 -0.42,-2.079 0,-0.84 0.42,-2.918 -0.42,-4.177 0.84,0.42 2.918,1.679 4.157,1.679 1.26,0.42 1.68,0.42 2.499,0.84 0.42,0.399 0.42,1.238 0.84,0.819 0.819,-0.82 0.419,-1.66 -0.84,-3.758 0,0 0.42,0 0.84,0.42 0.419,0.84 1.238,0.42 1.238,0.42 0,0 -0.42,-1.24 -0.82,-2.499 -0.419,-1.26 -0.839,-2.079 -1.258,-2.918 -0.82,-0.84 -3.318,-1.26 -3.318,-1.26 0,0 -0.42,-0.42 -0.84,-1.239 -0.84,-0.42 -5.417,0 -5.816,-0.42 -0.42,0 -6.256,-5.016 -6.656,-6.256 -0.84,-0.84 0.4,-3.358 1.239,-2.938 0.84,0.42 3.338,0.84 4.577,2.519 0.84,0.82 2.499,2.498 3.338,3.338 1.24,0.82 0.4,1.239 1.24,1.239 0.42,-0.42 0.839,-1.24 0,-2.499 h 2.078 c 0.84,0.42 2.079,0.42 2.499,1.26 0.42,0.82 0.42,1.659 0.84,1.239 0.399,-0.42 0.399,-1.66 -0.42,-3.338 -2.5,-1.24 -5.837,-2.918 -6.657,-4.997 -0.839,-0.84 0,-2.099 0.42,-3.338 -0.42,-0.42 -0.84,-0.42 -0.84,-0.42 -1.259,-0.84 -2.498,-1.679 -4.577,-2.099 -2.078,-0.82 -1.259,-0.82 -2.498,-3.338 0,-0.82 0,-1.659 0.84,-2.498 l -0.84,0.84 c 1.24,-2.919 6.236,-8.755 15.81,-8.355 0,0 2.499,0.839 7.496,0 h 2.898 c 2.099,-0.4 3.758,-0.82 5.417,0 2.918,1.259 4.157,2.938 7.495,3.337 2.899,0 5.397,-0.4 7.896,-1.239 5.416,-2.098 10.813,-5.436 6.655,-11.693 0.84,6.676 -4.577,6.257 -9.554,5.017 -2.098,-0.42 -4.577,-1.259 -6.676,-2.098 -2.898,-0.82 -3.318,-3.338 -6.656,-3.338 -3.318,-0.42 -6.236,0 -9.554,0 -2.498,-0.42 -4.577,-0.42 -6.656,-0.42 -2.079,0 -4.577,-0.4 -6.656,-0.82 -2.498,-0.42 -3.758,-3.338 -6.256,-3.757 -7.475,-2.1 -8.735,6.256 -14.131,8.335 -4.178,2.098 -7.916,3.757 -11.653,6.676 -4.158,2.938 -9.155,5.436 -14.152,6.675 -12.072,3.758 -25.804,3.758 -38.277,2.519 -9.574,-1.26 -19.148,-7.935 -28.702,-5.017 -4.997,1.26 -7.915,5.437 -12.073,8.775 -4.157,3.338 -9.994,8.335 -10.414,14.171 z"
       fill="#d9dadb"
       fill-rule="evenodd"
       fill-opacity="1"
       stroke="none"
       id="path5" />
    <path
       d="m 105.256,103.577 c 10.834,-3.318 20.388,-10.813 26.644,-20.367 3.318,-4.997 5.817,-10.394 3.738,-16.63 -1.66,-3.758 1.259,-8.335 3.738,-7.496 2.498,0.84 4.996,2.079 7.075,3.738 2.079,1.679 2.499,3.758 4.178,5.836 1.659,1.24 2.478,1.24 2.478,3.738 0.42,1.66 -0.4,2.499 0.42,4.577 1.26,2.899 4.157,4.977 6.656,7.076 4.157,3.738 -2.079,4.977 -5.817,5.817 -5.416,0.819 -10.813,1.659 -16.23,3.318 -2.498,0.839 -7.915,4.577 -10.813,4.157 z M 157.704,9.854 c 4.158,-0.84 9.575,7.076 11.653,9.994 2.08,3.318 4.977,9.154 2.499,12.892 -4.178,-0.82 -4.178,-7.475 -5.837,-10.394 -2.498,-4.577 -5.816,-10.833 -9.994,-13.751 z m -3.837,102.838 c 2.558,0.84 2.558,0 4.657,2.098 0.86,0.82 2.538,2.08 2.538,3.738 -1.679,-0.82 -3.378,-1.24 -5.077,-1.659 z"
       fill="#d9dadb"
       fill-rule="evenodd"
       fill-opacity="1"
       stroke="none"
       id="path6" />
    <path
       d="m 181.35,75.214 c -0.82,-0.82 0.82,-4.557 -3.278,-6.636 -3.718,-2.498 -6.596,1.66 -6.596,1.66 -0.42,2.918 1.24,4.976 3.298,5.816 1.64,0.82 5.357,-0.84 5.357,-0.84 h 1.22 z"
       fill="#ffffff"
       fill-rule="evenodd"
       fill-opacity="1"
       stroke="none"
       id="path7" />
    <path
       d="m 173.115,69.858 c 1.26,-2.1 3.758,-2.1 5.437,-0.84 2.099,1.26 2.498,3.778 0.84,5.457 -1.26,1.679 -3.758,2.079 -5.437,0.84 -1.68,-1.26 -2.1,-3.778 -0.84,-5.457 z"
       fill="#adaeb0"
       fill-rule="evenodd"
       fill-opacity="1"
       stroke="none"
       id="path8" />
    <path
       d="m 175.154,71.097 c 0.42,-0.86 1.24,-0.86 2.059,-0.42 0.8,0.84 0.8,1.7 0.4,2.559 -0.4,0.42 -1.64,0.84 -2.04,0 -0.819,-0.44 -1.239,-1.28 -0.42,-2.14 z"
       fill="#555557"
       fill-rule="evenodd"
       fill-opacity="1"
       stroke="none"
       id="path9" />
    <path
       d="m 193.023,62.722 c 0.42,0.84 0.42,3.338 1.619,4.157 -0.4,-0.4 -0.4,-0.4 -0.4,-0.819 0.4,-9.174 -4.457,-10.434 -4.457,-10.434 l -0.42,-0.42 c 0.42,1.26 0.82,2.519 1.64,3.339 0.799,1.259 1.618,2.498 2.018,4.177 z"
       fill="#adaeb0"
       fill-rule="evenodd"
       fill-opacity="1"
       stroke="none"
       id="path10" />
    <path
       d="m 97.261,114.81 c 5.017,-0.84 10.434,-2.918 15.03,-4.997 2.08,-0.839 4.158,-0.839 6.257,-2.078 3.338,-1.26 5.417,-3.758 7.496,-6.676 1.259,-0.82 4.177,-4.997 5.017,-2.499 0.82,1.68 -1.26,4.178 -1.68,5.837 -0.819,2.078 -0.819,4.997 0,7.075 0.42,1.68 1.68,2.919 2.5,4.578 -2.08,-0.4 -3.319,-2.899 -4.998,-4.158 -1.659,-0.84 -3.338,-1.659 -4.997,-2.079 -4.177,-0.839 -8.775,1.24 -12.932,2.08 z m 50.829,-7.855 c -2.059,1.68 -2.059,7.076 -2.059,9.574 2.06,-2.898 3.698,-2.078 6.157,-1.239 -1.22,-1.659 -4.098,-6.256 -2.858,-8.755 z m -78.652,9.935 c 2.498,0.819 4.157,2.478 5.816,4.117 2.08,-4.118 11.234,0 13.292,-4.957 -4.977,2.078 -11.213,0 -15.77,0.84 z M 37.457,105.676 c 4.997,-2.539 9.175,1.28 14.152,2.538 -2.899,-0.84 -3.738,-4.237 -6.236,-5.077 -2.08,-0.44 -5.417,0.42 -7.076,2.12 z M 184.648,90.745 c 0,2.079 0.84,4.137 2.519,4.977 1.259,0.42 4.197,0.82 4.197,-0.42 -3.358,0 -2.518,-5.396 -6.716,-5.396 z"
       fill="#cacbcc"
       fill-rule="evenodd"
       fill-opacity="1"
       stroke="none"
       id="path11" />
    <path
       d="m 196.321,91.944 c 2.099,0.4 0.42,2.439 3.358,2.039 1.679,-0.4 2.518,-1.639 3.358,-3.278 -1.26,0.42 -1.679,1.24 -3.358,1.24 -1.26,0 -2.518,-0.42 -3.358,0 z"
       fill="#a2a4a6"
       fill-rule="evenodd"
       fill-opacity="1"
       stroke="none"
       id="path12" />
    <path
       d="m 161.062,42.414 c -5.916,4.997 -7.195,21.227 -2.098,26.624 -1.28,-3.318 -0.86,-7.475 -0.86,-11.213 0.42,-2.099 -0.42,-3.338 0.42,-6.656 0.44,-2.498 0.86,-6.256 2.538,-8.755 z"
       fill="#ffffff"
       fill-rule="evenodd"
       fill-opacity="1"
       stroke="none"
       id="path13" />
    <path
       d="m 125.184,36.898 c -2.498,4.197 0.42,13.811 2.918,17.569 2.08,2.498 4.158,4.597 5.417,7.515 1.24,2.1 1.66,5.857 3.318,7.936 1.66,-1.24 1.66,-3.338 2.918,-4.997 0.84,-1.26 2.499,-2.1 2.919,-3.778 0.4,-3.338 -5.417,-4.597 -7.496,-5.837 -4.157,-3.357 -9.154,-7.115 -9.994,-12.972 z"
       fill="#d9dadb"
       fill-rule="evenodd"
       fill-opacity="1"
       stroke="none"
       id="path14" />
    <path
       d="m 139.715,58.245 c 2.519,1.259 4.198,1.259 6.297,3.737 1.259,2.06 2.498,6.616 -0.84,8.255 z"
       fill="#d9dadb"
       fill-rule="evenodd"
       fill-opacity="1"
       stroke="none"
       id="path15" />
    <path
       d="M 35.778,71.597 C 40.356,52.868 50.729,34.959 72.716,27.463 94.723,19.948 98.86,22.466 98.86,22.466 c -9.954,2.08 -48.97,7.896 -63.082,49.13 z"
       fill="#ffffff"
       fill-rule="evenodd"
       fill-opacity="1"
       stroke="none"
       id="path16" />
    <path
       clip-path="url(#a)"
       d="m 14.911,114.37 c -2.898,6.257 -14.951,25.445 8.715,38.777 -6.217,-3.738 -17.01,-14.591 -8.715,-38.776 z"
       fill="#ffffff"
       fill-rule="evenodd"
       fill-opacity="1"
       stroke="none"
       id="path17" />
    <path
       d="m 147.27,101.938 c 2.919,-4.597 7.896,-8.774 13.313,-8.355 2.478,0 4.977,0.42 7.475,0 2.499,0 4.997,0.82 7.476,0.42 -7.056,-0.84 -14.552,-3.778 -22.027,-1.26 -2.499,0.84 -5.397,2.5 -6.656,5.018 -1.659,3.757 -2.079,8.754 -2.498,12.932 0.42,-1.24 0.839,-2.499 1.259,-3.338 0.42,-2.079 1.659,-3.758 2.898,-5.417 z"
       fill="#cacbcc"
       fill-rule="evenodd"
       fill-opacity="1"
       stroke="none"
       id="path18" />
    <path
       clip-path="url(#a)"
       d="m 39.496,54.907 c -9.154,22.066 -6.656,27.483 -9.154,34.979 -2.899,7.075 -18.31,17.07 -22.887,38.736 -3.337,14.151 6.656,29.562 48.691,38.317 42.454,8.735 66.18,3.318 86.987,4.157 21.227,0.84 64.94,0.42 79.492,21.227 -14.551,-20.807 -53.687,-24.565 -74.915,-25.384 -20.807,-1.26 -41.195,2.498 -83.649,-6.256 -34.959,-8.755 -48.27,-17.07 -45.372,-31.241 2.078,-9.155 13.731,-18.73 15.83,-19.988 3.738,-2.899 7.895,-3.318 12.473,-1.24 7.495,3.738 22.066,8.335 26.643,8.335 4.997,0 19.569,0.82 28.723,-0.84 9.574,-2.078 17.05,-7.495 25.385,-0.839 3.318,2.919 8.734,7.076 12.492,9.575 3.318,2.498 11.233,6.676 12.472,8.335 0.84,1.659 2.919,3.338 3.338,4.157 0.82,0.42 0.82,1.679 2.08,1.679 0.839,-0.42 -0.42,-1.26 -0.42,-2.079 0,-0.84 0.42,-2.918 -0.42,-4.177 0.84,0.42 2.918,1.679 4.177,1.679 1.24,0.4 1.66,0.4 2.479,0.82 0.42,0.419 0.42,1.258 0.84,0.839 0.839,-0.84 0.419,-1.66 -0.84,-3.758 0,0 0.42,0 0.84,0.42 0.419,0.84 1.258,0.42 1.258,0.42 0,0 -0.42,-1.24 -0.84,-2.499 -0.419,-1.24 -0.839,-2.079 -1.258,-2.918 -0.82,-0.82 -3.318,-1.24 -3.318,-1.24 0,0 -0.42,-0.42 -0.84,-1.259 -0.82,-0.42 -5.397,0 -5.816,-0.42 -0.42,0 -6.257,-4.996 -6.656,-6.236 -0.84,-0.84 0.4,-3.338 1.239,-2.918 0.84,0.42 3.338,0.84 4.577,2.499 l 3.338,3.338 c 1.24,0.82 0.4,1.239 1.24,1.239 0.42,-0.42 0.839,-1.24 0,-2.499 h 2.078 c 0.84,0.42 2.079,0.42 2.499,1.26 0.42,0.82 0.42,1.659 0.84,1.239 0.419,-0.82 0.419,-2.918 -1.66,-5.817 0,0 1.66,0 2.479,0.82 0.42,-0.82 -1.66,-4.158 -3.318,-5.417 -1.26,-0.82 -4.158,-1.24 -4.997,-1.659 -1.24,-0.84 -2.499,-1.659 -4.578,-2.079 -2.078,-0.84 -1.259,-0.84 -2.498,-3.338 0,-0.84 0,-1.659 0.84,-2.498 l -0.84,0.84 c 1.24,-2.919 6.236,-8.755 15.81,-8.336 0,0 2.499,0.84 7.496,0 5.417,-0.839 11.233,3.338 14.151,4.578 3.338,1.259 9.155,-1.66 11.653,-2.079 2.079,-0.84 5.417,-1.659 7.076,-4.577 2.079,-3.338 -1.66,-7.915 -4.158,-13.332 -2.078,-5.417 -5.416,-9.574 -6.236,-13.312 0.4,-9.175 -4.597,-10.414 -4.597,-10.414 0,0 -4.977,-4.597 -7.475,-10.413 -2.919,-5.837 -4.578,-7.916 -7.916,-12.073 0,0 0.84,-12.912 -9.154,-21.247 -9.994,-8.335 -12.493,-4.578 -10.814,1.659 1.24,6.676 1.66,12.092 1.66,12.092 0,0 -1.66,7.896 -6.257,5.397 C 80.711,0.76 46.572,36.578 39.496,54.907"
       fill="none"
       stroke="#333333"
       stroke-width="0.799515px"
       stroke-linecap="round"
       stroke-linejoin="round"
       stroke-miterlimit="4"
       stroke-dasharray="none"
       stroke-opacity="1"
       id="path19" />
    <path
       d="m 156.345,41.135 c -2.478,-8.355 -15.37,-22.546 -27.023,-12.512 -12.073,10.014 3.737,26.284 8.315,27.963 4.577,2.078 9.574,4.157 10.813,7.495 z"
       fill="#ededee"
       fill-rule="evenodd"
       fill-opacity="1"
       stroke="none"
       id="path20" />
    <path
       d="m 156.345,41.135 c -2.478,-8.355 -15.37,-22.546 -27.023,-12.512 -12.073,10.014 3.737,26.284 8.315,27.963 4.577,2.078 9.574,4.157 10.813,7.495"
       fill="none"
       stroke="#333333"
       stroke-width="0.799515px"
       stroke-linecap="round"
       stroke-linejoin="round"
       stroke-miterlimit="4"
       stroke-dasharray="none"
       stroke-opacity="1"
       id="path21" />
    <path
       d="m 188.806,94.063 c -2.899,3.338 -10.794,16.25 -8.295,24.145 m 7.175,-24.625 c -2.478,2.099 -12.052,18.39 -12.472,22.147 m 11.593,-23.026 c -4.178,2.938 -14.212,15.49 -16.31,17.989 m 39.176,-30.462 c -2.059,0.86 -6.616,2.539 -7.036,2.959 m 3.678,-4.638 c -1.22,0.42 -3.258,2.939 -3.678,3.358 m 4.557,-8.714 c -2.058,1.239 -4.937,6.196 -5.356,7.835 m -12.153,14.151 c -1.659,2.099 -5.836,15.011 -4.997,21.667 m 2.119,-25.265 c -1.66,0.84 -15.41,9.934 -21.267,11.993 M 203.037,83.63 c 1.28,-0.46 2.538,-0.92 4.637,0.439"
       fill="none"
       stroke="#333333"
       stroke-width="0.479709px"
       stroke-linecap="round"
       stroke-linejoin="round"
       stroke-miterlimit="4"
       stroke-dasharray="none"
       stroke-opacity="1"
       id="path22" />
    <path
       d="m 181.35,75.214 c -0.82,-0.82 0.82,-4.557 -3.278,-6.636 -3.718,-2.498 -6.596,1.66 -6.596,1.66 -0.42,2.918 1.24,4.976 3.298,5.816 1.64,0.82 5.357,-0.84 5.357,-0.84 h 1.22 z"
       fill="none"
       stroke="#333333"
       stroke-width="0.799515px"
       stroke-linecap="round"
       stroke-linejoin="round"
       stroke-miterlimit="4"
       stroke-dasharray="none"
       stroke-opacity="1"
       id="path23" />
    <path
       d="m 173.115,69.858 c 1.26,-2.1 3.758,-2.1 5.437,-0.84 2.099,1.26 2.498,3.778 0.84,5.457 -1.26,1.679 -3.758,2.079 -5.437,0.84 -1.68,-1.26 -2.1,-3.778 -0.84,-5.457"
       fill="none"
       stroke="#333333"
       stroke-width="0.799515px"
       stroke-linecap="round"
       stroke-linejoin="round"
       stroke-miterlimit="4"
       stroke-dasharray="none"
       stroke-opacity="1"
       id="path24" />
    <path
       d="m 175.154,71.097 c 0.42,-0.86 1.24,-0.86 2.059,-0.42 0.8,0.84 0.8,1.7 0.4,2.559 -0.4,0.42 -1.64,0.84 -2.04,0 -0.819,-0.44 -1.239,-1.28 -0.42,-2.14 m -79.891,52.069 c -2.078,-2.098 -3.737,-3.358 -5.836,-3.777 -1.66,-0.42 -7.096,-2.539 -7.516,-2.539 m 7.836,7.196 c -0.82,-1.26 -1.66,-2.938 -2.499,-3.358 -0.82,-0.42 -8.335,-2.958 -9.174,-2.958 m -1.2,2.958 c 0,-1.26 -1.279,-2.958 -1.279,-2.958"
       fill="none"
       stroke="#333333"
       stroke-width="0.799515px"
       stroke-linecap="round"
       stroke-linejoin="round"
       stroke-miterlimit="4"
       stroke-dasharray="none"
       stroke-opacity="1"
       id="path25" />
    <path
       d="m 59.124,112.692 c 0.42,0.84 1.26,1.259 2.079,1.679 2.079,0.84 8.715,3.358 10.374,4.197 1.239,0.84 2.918,4.198 4.157,6.296 0,0.42 0.42,0.84 0.82,0.84 0.42,0.84 0.42,1.26 0.42,1.26 0.42,-0.001 0.42,-0.42 0.42,-0.84 0,-0.42 0.419,-1.26 0.419,-1.68 -0.42,-2.098 -0.84,-3.777 -0.84,-3.777 0,0 4.977,0 6.217,1.26 1.259,1.258 3.737,4.197 4.157,5.036 0.42,0.84 1.24,1.26 2.079,1.679 0.42,0.42 0.42,1.24 0.82,1.24 0.42,0 0,-0.82 0,-1.24 0,-1.26 -0.4,-4.617 -0.4,-4.617 0,0 1.659,0.42 2.898,0.84 0.82,0 2.079,0.839 2.478,0.839 0.42,0 0.42,0.42 0.84,0.42 0.42,-0.42 0.42,-0.42 0,-1.26 -0.42,-0.42 -0.42,-1.679 -0.84,-1.679 0,-0.42 1.26,-0.42 2.079,0 0.42,0.42 0.84,0.84 1.24,0 0,0 -0.4,-0.42 -0.82,-0.84 -0.84,-1.258 -2.499,-2.937 -3.318,-3.357 -1.24,-0.84 -2.898,-1.68 -5.397,-2.099 -6.216,0 -12.452,-0.42 -15.35,-0.42 -2.5,0 -8.715,-1.679 -14.532,-3.777 M 163.86,131.88 c -1.239,-1.639 -3.317,-2.878 -4.577,-3.278 -1.259,0 -7.095,-2.079 -7.095,-2.079 m 5.037,5.837 c -0.84,-0.84 -4.198,-3.398 -5.037,-3.838 m 5.516,-8.635 c -0.82,-2.098 -1.239,-4.217 -2.478,-5.916 -1.66,-1.68 -3.738,-2.958 -4.158,-2.958 m 10.314,5.517 c -0.82,-0.82 -2.898,-3.738 -4.557,-4.158 m -9.155,6.156 c -2.518,-2.478 -3.797,-4.977 0.84,-15.35 m 11.993,22.866 h -4.158 m -0.32,-101.139 c 0,1.26 0,2.099 -0.48,3.358"
       fill="none"
       stroke="#333333"
       stroke-width="0.799515px"
       stroke-linecap="round"
       stroke-linejoin="round"
       stroke-miterlimit="4"
       stroke-dasharray="none"
       stroke-opacity="1"
       id="path26" />
    <path
       d="m 173.855,70.917 c 0,-0.54 0.5,-1 1.079,-1 0.6,0 1.08,0.46 1.08,1 0,0.56 -0.48,1 -1.08,1 -0.58,0 -1.08,-0.44 -1.08,-1 z"
       fill="#ffffff"
       fill-rule="evenodd"
       fill-opacity="1"
       stroke="none"
       id="path27" />
    <path
       d="m 153.907,128.242 c -0.4,0.84 -0.8,1.26 -1.2,1.68 m -1.279,-17.19 c 0.86,-0.42 1.28,-0.84 1.28,-1.68 m 1.199,3.838 c 0.42,-0.42 1.259,-0.84 1.679,-1.279"
       fill="none"
       stroke="#d9dadb"
       stroke-width="1.67898px"
       stroke-linecap="butt"
       stroke-linejoin="miter"
       stroke-miterlimit="8"
       stroke-dasharray="none"
       stroke-opacity="1"
       id="path28" />
    <path
       d="m 151.368,44.413 c -5.816,-1.679 -3.318,2.519 -3.318,5.877 0,0.839 -1.659,6.276 1.66,4.197 0.819,-0.84 -0.42,-3.358 0,-4.617 0.419,-1.68 1.239,-2.099 2.478,-3.358 z m -0.839,-5.756 c -2.479,-5.397 -5.797,-7.456 -11.613,-8.295 -4.977,-0.42 -10.394,-0.42 -10.394,6.216 2.918,-0.82 5.817,-3.318 9.135,-3.318 2.078,0 5.396,1.659 7.475,2.498 2.918,1.24 1.659,2.479 2.918,4.558 0.82,2.898 1.66,0.84 4.138,1.239 -0.4,-0.82 -0.4,-1.66 -0.82,-2.479 z"
       fill="#d9dadb"
       fill-rule="evenodd"
       fill-opacity="1"
       stroke="none"
       id="path29" />
    <path
       d="m 149.37,44.413 c -3.019,0.44 -1.72,2.958 -0.44,4.637 0.44,-1.679 0.86,-2.938 2.138,-4.197 z M 130.98,32 c 1.26,-1.259 2.52,-1.259 4.598,-0.839 h 4.617 c 3.338,0 6.696,1.26 7.515,4.617 -1.659,-3.777 -6.256,-3.358 -9.194,-3.777 -1.679,0 -3.338,0.42 -5.017,0 -1.26,0 -2.518,-0.84 -3.778,0.42 z"
       fill="#cacbcc"
       fill-rule="evenodd"
       fill-opacity="1"
       stroke="none"
       id="path30" />
    <path
       d="m 128.522,40.256 c 0,2.518 3.338,7.975 4.997,9.654 2.499,3.358 6.236,4.197 9.554,5.856 -3.318,-2.498 -6.236,-4.597 -8.315,-7.535 -1.659,-2.519 -4.977,-5.037 -6.236,-7.556 z"
       fill="#f8f8f8"
       fill-rule="evenodd"
       fill-opacity="1"
       stroke="none"
       id="path31" />
    <path
       d="m 151.388,44.413 c -4.517,0 -5.357,1.28 -3.698,3.798 2.06,2.938 -1.239,5.876 1.64,7.555"
       fill="none"
       stroke="#333333"
       stroke-width="0.799515px"
       stroke-linecap="round"
       stroke-linejoin="round"
       stroke-miterlimit="10"
       stroke-dasharray="none"
       stroke-opacity="1"
       id="path32" />
    <path
       d="m 155.566,41.655 c 1.279,-0.42 2.978,-0.84 2.978,-2.519 -1.28,-0.84 -2.978,0 -3.838,0.84 m -6.996,23.266 c -0.44,0 0.84,-1.2 0.84,-1.6 m 1.679,-16.709 c 0,-0.42 -0.48,-0.84 -0.48,-1.68"
       fill="none"
       stroke="#ededee"
       stroke-width="1.67898px"
       stroke-linecap="butt"
       stroke-linejoin="miter"
       stroke-miterlimit="8"
       stroke-dasharray="none"
       stroke-opacity="1"
       id="path33" />
  </g>
</svg>
